<svg xmlns="http://www.w3.org/2000/svg" xmlns:xlink="http://www.w3.org/1999/xlink" width="35" height="45" viewBox="0 0 35 45">
  <defs>
    <clipPath id="clip-path">
      <path id="Mask" d="M1.094,44.755A2.377,2.377,0,0,1,0,42.731C0,2.931.025.008.025.008L35,0s-.015,2.931-.233,42.731a2.377,2.377,0,0,1-1.094,2.024,1.925,1.925,0,0,1-1.094.225,3.05,3.05,0,0,1-1.312-.45L17.274,34.187,3.28,44.53A2.5,2.5,0,0,1,1.917,45,1.43,1.43,0,0,1,1.094,44.755Z" transform="translate(0 -0.004)" fill="#ffa855"/>
    </clipPath>
  </defs>
  <g id="Mask_Group_232" data-name="Mask Group 232" transform="translate(0 0.004)" clip-path="url(#clip-path)">
    <g id="Icon_Color" data-name="Icon Color" transform="translate(-8.746 -4.493)">
      <rect id="_Icon_Color" data-name="🎨 Icon Color" width="52.478" height="53.966" fill="#ffa855"/>
    </g>
  </g>
</svg>
